<svg version="1.1" xmlns="http://www.w3.org/2000/svg" xmlns:xlink="http://www.w3.org/1999/xlink" x="0px" y="0px" width="128px"
	 height="128px" viewBox="0 0 128 128" enable-background="new 0 0 128 128" xml:space="preserve">
<rect fill="#808080" width="128" height="128"/>
<g>
	<path fill-rule="evenodd" clip-rule="evenodd" fill="#FEB800" d="M43.38,101.627c0.688-7.184,3.698-9.562,13.479-10.484
		c0-4.348,0-8.722,0-13.085c-11.426-2.538-15.547-6.736-17.113-17.39c-0.694-0.705-1.66-0.646-2.524-0.878
		c-10.425-2.804-17.673-12.11-17.802-22.877c-0.027-2.282-0.025-4.565-0.001-6.847c0.107-9.985,8.863-16.297,18.382-13.256
		c0.538,0.172,1.064,0.377,1.711,0.607C40.022,16.189,41,15.997,42.202,16c14.493,0.031,28.986,0.02,43.48,0.021
		c1.128,0,2.359-0.215,2.55,1.505c3.493-1.495,6.805-2.008,10.258-1.001c5.881,1.716,9.866,6.732,9.951,12.854
		c0.051,3.645,0.446,7.337-0.247,10.935c-1.982,10.273-8.058,16.856-18.2,19.609c-0.544,0.148-1.091,0.29-1.859,0.495
		c-0.394,4.621-1.792,8.862-5.174,12.24c-3.288,3.288-7.37,4.789-12.019,5.185c0,4.492,0,8.785,0,13.389
		c7.314-0.191,12.896,2.007,13.561,10.397C70.795,101.627,57.088,101.627,43.38,101.627z M81.069,42.985
		c0-3.992,0.002-7.984,0-11.976c-0.001-1.596,0.092-3.202-0.041-4.788c-0.169-2.037-1.456-3.253-3.255-3.324
		c-1.896-0.075-3.303,1.252-3.528,3.407c-0.083,0.79-0.026,1.595-0.026,2.394c-0.002,9.238,0.026,18.476-0.016,27.714
		c-0.019,4.165-2.339,6.811-6.429,7.538c-0.335,0.059-0.691,0.021-1.019,0.104c-1.755,0.452-2.82,1.773-2.785,3.411
		c0.039,1.809,1.263,3.113,3.263,3.317c0.897,0.092,1.848,0.09,2.725-0.1c7.129-1.537,11.253-7.808,11.133-13.33
		C80.986,52.567,81.068,47.775,81.069,42.985z M39.917,53.064c0-8.118,0.13-15.971-0.057-23.816
		c-0.088-3.711-3.233-6.361-6.791-6.336c-3.553,0.025-6.506,2.701-6.719,6.432c-0.176,3.065-0.23,6.176,0.084,9.223
		C27.182,45.811,32.534,51.581,39.917,53.064z M87.918,53.06c7.732-1.483,13.204-7.828,13.634-15.481
		c0.141-2.501,0.125-5.018,0.039-7.522c-0.144-4.199-2.938-7.1-6.743-7.144c-3.929-0.045-6.811,2.938-6.905,7.33
		c-0.088,4.102-0.022,8.208-0.023,12.313C87.918,45.96,87.918,49.366,87.918,53.06z"/>
	<path fill-rule="evenodd" clip-rule="evenodd" fill="#8D562E" d="M43.38,101.627c13.708,0,27.415,0,41.123,0
		c2.738,0.009,5.478-0.043,8.213,0.04c3.378,0.103,5.296,1.981,5.465,5.288c0.075,1.468,0.013,2.943,0.013,4.354
		c-2.534,0.744-63.463,0.964-68.246,0.275c-0.511-1.588-0.305-3.306-0.212-4.968c0.165-2.931,2.106-4.81,5.089-4.936
		C37.672,101.561,40.528,101.637,43.38,101.627z M83.888,102.873c-0.049-0.112-0.099-0.225-0.147-0.337c-13.244,0-26.487,0-39.73,0
		c0,0.112,0.001,0.225,0.002,0.337C57.304,102.873,70.596,102.873,83.888,102.873z"/>
	<path fill-rule="evenodd" clip-rule="evenodd" fill="#FED578" d="M81.069,42.985c-0.001,4.791-0.083,9.583,0.021,14.37
		c0.12,5.521-4.004,11.792-11.133,13.33c-0.877,0.189-1.827,0.191-2.725,0.1c-2-0.204-3.224-1.509-3.263-3.317
		c-0.035-1.638,1.03-2.959,2.785-3.411c0.327-0.084,0.684-0.045,1.019-0.104c4.09-0.728,6.41-3.374,6.429-7.538
		c0.042-9.238,0.014-18.476,0.016-27.714c0-0.799-0.057-1.604,0.026-2.394c0.226-2.155,1.632-3.482,3.528-3.407
		c1.799,0.071,3.086,1.287,3.255,3.324c0.133,1.586,0.04,3.192,0.041,4.788C81.071,35.001,81.069,38.993,81.069,42.985z"/>
	<path fill-rule="evenodd" clip-rule="evenodd" fill="#8C552E" d="M83.888,102.873c-13.292,0-26.584,0-39.875,0
		c-0.001-0.112-0.002-0.225-0.002-0.337c13.243,0,26.486,0,39.73,0C83.789,102.648,83.839,102.761,83.888,102.873z"/>
</g>
<line fill="none" stroke="#FF0000" stroke-width="4" stroke-miterlimit="10" x1="115.2" y1="115.2" x2="12.8" y2="12.8"/>
</svg>
